<svg xmlns="http://www.w3.org/2000/svg" width="1920" height="1080" viewBox="0 0 1920 1080" preserveAspectRatio="xMidYMid slice">
  <defs>
    <linearGradient id="bg-contact" x1="0%" y1="0%" x2="100%" y2="100%">
      <stop offset="0%" stop-color="#020617" />
      <stop offset="40%" stop-color="#000000" />
      <stop offset="100%" stop-color="#020617" />
    </linearGradient>
    <radialGradient id="nodeGlow" cx="50%" cy="50%" r="50%">
      <stop offset="0%" stop-color="#f59e0b" stop-opacity="0.9" />
      <stop offset="40%" stop-color="#f59e0b" stop-opacity="0.2" />
      <stop offset="100%" stop-color="#000000" stop-opacity="0" />
    </radialGradient>
  </defs>
  <rect width="1920" height="1080" fill="url(#bg-contact)" />
  <g stroke="#f59e0b" stroke-opacity="0.15" stroke-width="1">
    <path d="M200 200 L600 260 L1000 220 L1400 260 L1800 220" />
    <path d="M200 480 L600 520 L1000 480 L1400 520 L1800 480" />
    <path d="M200 760 L600 820 L1000 780 L1400 820 L1800 780" />
    <path d="M260 140 L260 840" />
    <path d="M960 120 L960 860" />
    <path d="M1660 160 L1660 840" />
  </g>
  <g fill="#f59e0b" fill-opacity="0.9">
    <circle cx="260" cy="200" r="4" />
    <circle cx="600" cy="260" r="3" />
    <circle cx="960" cy="220" r="4" />
    <circle cx="1400" cy="260" r="3" />
    <circle cx="1660" cy="220" r="4" />
    <circle cx="260" cy="480" r="4" />
    <circle cx="960" cy="480" r="4" />
    <circle cx="1660" cy="480" r="4" />
    <circle cx="260" cy="780" r="4" />
    <circle cx="960" cy="780" r="4" />
    <circle cx="1660" cy="780" r="4" />
  </g>
  <circle cx="960" cy="540" r="420" fill="url(#nodeGlow)" opacity="0.45" />
</svg>

